<svg xmlns="http://www.w3.org/2000/svg" x="0" y="0" enable-background="new 0 0 265 95" preserveAspectRatio="none" viewBox="28 17 210 63" width="150px" height="100%"><linearGradient id="gradient-horizontal"><stop offset="0%" stop-color="var(--color-stop-1)"></stop><stop offset="50%" stop-color="var(--color-stop-2)"></stop><stop offset="100%" stop-color="var(--color-stop-3)"></stop></linearGradient><linearGradient id="gradient-vertical" x2="0" y2="1"><stop offset="0%" stop-color="var(--color-stop-1)"></stop><stop offset="50%" stop-color="var(--color-stop-2)"></stop><stop offset="100%" stop-color="var(--color-stop-3)"></stop></linearGradient><g><path d="M104.45 53.23h-9.13l-1.74 4.21h-4.66l8.76-19.66h4.49l8.79 19.66h-4.78l-1.73-4.21zm-1.44-3.45l-3.12-7.53-3.12 7.53h6.24zM111.44 49.89c0-4.55 3.51-7.78 8.43-7.78 3.17 0 5.67 1.38 6.77 3.85l-3.4 1.83c-.81-1.43-2.02-2.08-3.4-2.08-2.22 0-3.96 1.54-3.96 4.19s1.74 4.19 3.96 4.19c1.38 0 2.58-.62 3.4-2.08l3.4 1.85c-1.1 2.42-3.6 3.82-6.77 3.82-4.92-.01-8.43-3.24-8.43-7.79zM142.54 48.82v8.62h-4.1v-1.88c-.81 1.38-2.39 2.11-4.61 2.11-3.54 0-5.65-1.97-5.65-4.58 0-2.67 1.88-4.52 6.49-4.52h3.48c0-1.88-1.12-2.98-3.48-2.98-1.6 0-3.26.53-4.35 1.4l-1.57-3.06c1.66-1.18 4.1-1.83 6.52-1.83 4.6.01 7.27 2.15 7.27 6.72zm-4.38 3.85v-1.55h-3.01c-2.05 0-2.7.76-2.7 1.77 0 1.1.93 1.83 2.47 1.83 1.47 0 2.73-.67 3.24-2.05zM162.06 36.6v20.84h-4.19V55.7c-1.1 1.32-2.7 1.97-4.72 1.97-4.27 0-7.56-3.03-7.56-7.78s3.29-7.78 7.56-7.78c1.85 0 3.43.59 4.52 1.83V36.6h4.39zm-4.3 13.29c0-2.61-1.69-4.19-3.85-4.19-2.19 0-3.88 1.57-3.88 4.19s1.69 4.19 3.88 4.19c2.17 0 3.85-1.58 3.85-4.19zM180.83 51.13H169.4c.42 1.88 2.02 3.03 4.33 3.03 1.6 0 2.75-.48 3.79-1.46l2.33 2.53c-1.4 1.6-3.51 2.44-6.24 2.44-5.23 0-8.62-3.29-8.62-7.78 0-4.52 3.46-7.78 8.06-7.78 4.44 0 7.87 2.98 7.87 7.84-.01.34-.07.81-.09 1.18zm-11.49-2.56h7.44c-.31-1.91-1.74-3.15-3.71-3.15-1.99.01-3.42 1.21-3.73 3.15zM209.37 48.8v8.65h-4.38v-7.98c0-2.44-1.1-3.57-2.87-3.57-1.97 0-3.34 1.26-3.34 3.96v7.58h-4.38v-7.98c0-2.44-1.04-3.57-2.87-3.57-1.94 0-3.31 1.26-3.31 3.96v7.58h-4.38V42.34h4.19v1.74c1.12-1.29 2.81-1.97 4.75-1.97 2.11 0 3.9.81 4.97 2.47 1.21-1.55 3.17-2.47 5.45-2.47 3.58 0 6.17 2.08 6.17 6.69zM213.3 36.6h4.38v20.84h-4.38V36.6zM220.63 49.89c0-4.55 3.51-7.78 8.31-7.78s8.29 3.23 8.29 7.78-3.48 7.78-8.29 7.78-8.31-3.23-8.31-7.78zm12.17 0c0-2.61-1.66-4.19-3.85-4.19-2.19 0-3.88 1.57-3.88 4.19s1.69 4.19 3.88 4.19 3.85-1.58 3.85-4.19z" class="logo__plane-name dark:fill-title-dark"></path><g><path d="M54.83 77.6L29.51 62.98 29.51 33.74 54.83 19.13 80.15 33.74 80.15 62.98z" class="logo__plane-hexagon dark:fill-title-dark"></path><path d="M59.87 31.94H55.7l12.98 25.14h-5.24L50.21 32.33l-15.2 28.24H48.1l3.69-6.64h-4.15l-1.81 3.11h-4.89l3.29-6.22h12.31l5.23 9.75h12.88L59.87 31.94zM46.01 47.6l4.36-8.07 4.36 8.07h-8.72z" class="logo__plane-logo dark:fill-title-dark"></path></g></g></svg>